<?xml version="1.0" encoding="UTF-8" standalone="no"?>
<!-- Created with Inkscape (http://www.inkscape.org/) -->

<svg
   width="56.519711"
   height="46.369911"
   viewBox="0 0 56.519711 46.369915"
   version="1.1"
   id="svg1"
   xmlns="http://www.w3.org/2000/svg"
   xmlns:svg="http://www.w3.org/2000/svg">
  <defs
     id="defs1" />
  <g
     id="layer1"
     transform="translate(-3.7179587,-264.94312)">
    <g
       id="g19"
       transform="translate(0.53344096,64.108473)">
      <path
         style="font-variation-settings:'wght' 400;fill:#000000;stroke:#000000;stroke-width:2.925;stroke-linecap:round;stroke-linejoin:round;stroke-dasharray:none;stroke-opacity:1"
         d="M 52.292796,206.98753 12.202802,243.10465 Z"
         id="path9" />
      <path
         style="font-variation-settings:'wght' 400;fill:none;stroke:#000000;stroke-width:1.77277;stroke-linecap:round;stroke-linejoin:round;stroke-dasharray:none;stroke-opacity:1"
         d="m 29.623756,209.35643 c 0,0 5.885162,-5.58216 10.728507,-7.18161 4.843345,-1.59946 10.347478,1.55771 3.858455,5.5702"
         id="path10" />
      <path
         style="font-variation-settings:'wght' 400;fill:none;stroke:#000000;stroke-width:1.77277;stroke-linecap:round;stroke-linejoin:round;stroke-dasharray:none;stroke-opacity:1"
         d="m 4.0709028,233.56787 c 0,0 5.885162,-5.58216 10.7285072,-7.18161 4.843345,-1.59946 10.347478,1.55771 3.858455,5.5702"
         id="path11" />
      <path
         style="font-variation-settings:'wght' 400;fill:none;stroke:#000000;stroke-width:1.77277;stroke-linecap:round;stroke-linejoin:round;stroke-dasharray:none;stroke-opacity:1"
         d="m 58.817843,209.51403 c 0,0 -6.915144,4.23986 -9.713642,8.5042 -2.79851,4.26434 -1.173487,10.39807 4.381759,5.16866"
         id="path14" />
      <path
         style="font-variation-settings:'wght' 400;fill:none;stroke:#000000;stroke-width:1.77277;stroke-linecap:round;stroke-linejoin:round;stroke-dasharray:none;stroke-opacity:1"
         d="m 34.464099,230.63656 c 0,0 -6.915144,4.23986 -9.713642,8.5042 -2.79851,4.26434 -1.173487,10.39807 4.381759,5.16866"
         id="path15" />
    </g>
  </g>
</svg>
