<?xml version="1.0" encoding="UTF-8" standalone="no"?>
<!-- Created with Inkscape (http://www.inkscape.org/) -->

<svg
   width="38.158024"
   height="43.169281"
   viewBox="0 0 38.158024 43.169284"
   version="1.1"
   id="svg1"
   xmlns="http://www.w3.org/2000/svg"
   xmlns:svg="http://www.w3.org/2000/svg">
  <defs
     id="defs1" />
  <g
     id="layer1"
     transform="translate(-80.471528,-330.91544)">
    <g
       id="g9">
      <path
         style="font-variation-settings:'wght' 400;fill:none;stroke:#000000;stroke-width:1.59495;stroke-linecap:round;stroke-linejoin:round;stroke-dasharray:none;stroke-opacity:1"
         d="m 92.563993,332.86473 c 0,0 10.672247,-2.86806 13.841747,0.45056 1.2962,1.3572 -6.866027,7.83289 -5.09264,2.87366"
         id="path49" />
      <path
         style="font-variation-settings:'wght' 400;fill:none;stroke:#000000;stroke-width:1.59495;stroke-linecap:round;stroke-linejoin:round;stroke-dasharray:none;stroke-opacity:1"
         d="m 106.53709,372.13543 c 0,0 -10.672253,2.86806 -13.841753,-0.45056 -1.2962,-1.3572 6.86603,-7.83289 5.09264,-2.87366"
         id="path52" />
      <path
         style="font-variation-settings:'wght' 400;fill:none;stroke:#000000;stroke-width:1.59495;stroke-linecap:round;stroke-linejoin:round;stroke-dasharray:none;stroke-opacity:1"
         d="m 82.420819,359.48662 c 0,0 -2.86806,-10.67225 0.45056,-13.84175 1.3572,-1.2962 7.83289,6.86603 2.87366,5.09264"
         id="path53" />
      <path
         style="font-variation-settings:'wght' 400;fill:none;stroke:#000000;stroke-width:1.59495;stroke-linecap:round;stroke-linejoin:round;stroke-dasharray:none;stroke-opacity:1"
         d="m 114.46295,345.51353 c 0,0 2.86806,10.67225 -0.45056,13.84175 -1.3572,1.2962 -7.83289,-6.86603 -2.87366,-5.09264"
         id="path54" />
      <g
         id="g56"
         transform="translate(2,1.4024379e-5)">
        <path
           style="font-variation-settings:'wght' 400;fill:none;stroke:#000000;stroke-width:2.925;stroke-linecap:square;stroke-linejoin:miter"
           id="path55"
           d="m -336.33579,79.934029 a 16.153833,16.154005 0 0 1 -16.02642,16.153502 16.153833,16.154005 0 0 1 -16.27924,-15.898679"
           transform="rotate(-90)" />
        <path
           style="font-variation-settings:'wght' 400;fill:none;stroke:#000000;stroke-width:2.925;stroke-linecap:square;stroke-linejoin:miter"
           id="path56"
           d="m -336.33579,-115.16705 a 16.153833,16.154005 0 0 1 -16.02642,16.153499 16.153833,16.154005 0 0 1 -16.27924,-15.898679"
           transform="matrix(0,-1,-1,0,0,0)" />
      </g>
    </g>
  </g>
</svg>
