<?xml version="1.0" encoding="UTF-8" standalone="no"?>
<!-- Created with Inkscape (http://www.inkscape.org/) -->

<svg
   width="41.051147"
   height="41.05151"
   viewBox="0 0 41.051147 41.051513"
   version="1.1"
   id="svg1"
   xmlns="http://www.w3.org/2000/svg"
   xmlns:svg="http://www.w3.org/2000/svg">
  <defs
     id="defs1" />
  <g
     id="layer1"
     transform="translate(-77.274965,-268.62881)">
    <g
       id="g8">
      <path
         style="font-variation-settings:'wght' 400;fill:none;stroke:#000000;stroke-width:1.59495;stroke-linecap:round;stroke-linejoin:round;stroke-dasharray:none;stroke-opacity:1"
         d="m 90.813991,270.99198 c 0,0 10.672249,-2.86806 13.841749,0.45056 1.2962,1.3572 -6.866029,7.83289 -5.092639,2.87366"
         id="path45" />
      <path
         style="font-variation-settings:'wght' 400;fill:#000000;stroke:#000000;stroke-width:2.925;stroke-linecap:round;stroke-linejoin:round;stroke-dasharray:none;stroke-opacity:1"
         d="M 116.87809,270.07683 78.722986,308.2323 Z"
         id="path43" />
      <path
         style="font-variation-settings:'wght' 400;fill:#000000;stroke:#000000;stroke-width:2.925;stroke-linecap:round;stroke-linejoin:round;stroke-dasharray:none;stroke-opacity:1"
         d="M 78.722986,270.07683 116.87809,308.2323 Z"
         id="path44" />
      <path
         style="font-variation-settings:'wght' 400;fill:none;stroke:#000000;stroke-width:1.59495;stroke-linecap:round;stroke-linejoin:round;stroke-dasharray:none;stroke-opacity:1"
         d="m 104.78709,307.31715 c 0,0 -10.672255,2.86806 -13.841755,-0.45056 -1.2962,-1.3572 6.86603,-7.83289 5.09264,-2.87366"
         id="path46" />
      <path
         style="font-variation-settings:'wght' 400;fill:none;stroke:#000000;stroke-width:1.59495;stroke-linecap:round;stroke-linejoin:round;stroke-dasharray:none;stroke-opacity:1"
         d="m 79.638128,296.14111 c 0,0 -2.86806,-10.67225 0.45056,-13.84175 1.3572,-1.2962 7.83289,6.86603 2.87366,5.09264"
         id="path47" />
      <path
         style="font-variation-settings:'wght' 400;fill:none;stroke:#000000;stroke-width:1.59495;stroke-linecap:round;stroke-linejoin:round;stroke-dasharray:none;stroke-opacity:1"
         d="m 115.96295,282.16802 c 0,0 2.86806,10.67225 -0.45056,13.84175 -1.3572,1.2962 -7.83289,-6.86603 -2.87366,-5.09264"
         id="path48" />
    </g>
  </g>
</svg>
