<?xml version="1.0" encoding="UTF-8" standalone="no"?>
<!-- Created with Inkscape (http://www.inkscape.org/) -->

<svg
   width="50.141731"
   height="54.03883"
   viewBox="0 0 50.141731 54.038834"
   version="1.1"
   id="svg1"
   xmlns="http://www.w3.org/2000/svg"
   xmlns:svg="http://www.w3.org/2000/svg">
  <defs
     id="defs1" />
  <g
     id="layer1"
     transform="translate(-72.508621,-197.32901)">
    <g
       id="g7">
      <path
         style="font-variation-settings:'wght' 400;fill:#000000;stroke:#000000;stroke-width:2.925;stroke-linecap:round;stroke-linejoin:round;stroke-dasharray:none;stroke-opacity:1"
         d="M 99.205164,197.40515 96.39591,251.2917 Z"
         id="path34" />
      <g
         id="g38">
        <path
           style="font-variation-settings:'wght' 400;fill:none;stroke:#000000;stroke-width:2.925;stroke-linecap:round;stroke-linejoin:round;stroke-dasharray:none;stroke-opacity:1"
           id="path35"
           d="m 198.86978,-83.889595 a 7.2785158,7.4608998 0 0 1 -7.21578,7.460623 7.2785158,7.4608998 0 0 1 -7.34017,-7.332006"
           transform="matrix(0,1,-0.97555471,-0.2197567,0,0)" />
        <path
           style="font-variation-settings:'wght' 400;fill:none;stroke:#000000;stroke-width:2.925;stroke-linecap:round;stroke-linejoin:round;stroke-dasharray:none;stroke-opacity:1"
           id="path36"
           d="m 196.5874,-94.275497 a 7.2785158,7.4608998 0 0 1 -7.21578,7.460622 7.2785158,7.4608998 0 0 1 -7.34017,-7.332005"
           transform="matrix(0,1,-0.97555471,-0.2197567,0,0)" />
      </g>
      <g
         id="g39">
        <path
           style="font-variation-settings:'wght' 400;fill:none;stroke:#000000;stroke-width:2.925;stroke-linecap:round;stroke-linejoin:round;stroke-dasharray:none;stroke-opacity:1"
           id="path37"
           d="m -210.31044,106.4144 a 7.2785158,7.4608998 0 0 1 -7.21578,7.46062 7.2785158,7.4608998 0 0 1 -7.34017,-7.332"
           transform="matrix(0,-1,0.97555471,0.2197567,0,0)" />
        <path
           style="font-variation-settings:'wght' 400;fill:none;stroke:#000000;stroke-width:2.925;stroke-linecap:round;stroke-linejoin:round;stroke-dasharray:none;stroke-opacity:1"
           id="path38"
           d="m -208.02806,116.8003 a 7.2785158,7.4608998 0 0 1 -7.21578,7.46062 7.2785158,7.4608998 0 0 1 -7.34017,-7.332"
           transform="matrix(0,-1,0.97555471,0.2197567,0,0)" />
      </g>
      <g
         id="g40"
         transform="translate(-0.625,31.75)">
        <path
           style="font-variation-settings:'wght' 400;fill:none;stroke:#000000;stroke-width:2.925;stroke-linecap:round;stroke-linejoin:round;stroke-dasharray:none;stroke-opacity:1"
           id="path39"
           d="m 198.86978,-83.889595 a 7.2785158,7.4608998 0 0 1 -7.21578,7.460623 7.2785158,7.4608998 0 0 1 -7.34017,-7.332006"
           transform="matrix(0,1,-0.97555471,-0.2197567,0,0)" />
        <path
           style="font-variation-settings:'wght' 400;fill:none;stroke:#000000;stroke-width:2.925;stroke-linecap:round;stroke-linejoin:round;stroke-dasharray:none;stroke-opacity:1"
           id="path40"
           d="m 196.5874,-94.275497 a 7.2785158,7.4608998 0 0 1 -7.21578,7.460622 7.2785158,7.4608998 0 0 1 -7.34017,-7.332005"
           transform="matrix(0,1,-0.97555471,-0.2197567,0,0)" />
      </g>
      <g
         id="g42"
         transform="translate(-0.125,-30.625)">
        <path
           style="font-variation-settings:'wght' 400;fill:none;stroke:#000000;stroke-width:2.925;stroke-linecap:round;stroke-linejoin:round;stroke-dasharray:none;stroke-opacity:1"
           id="path41"
           d="m -210.31044,106.4144 a 7.2785158,7.4608998 0 0 1 -7.21578,7.46062 7.2785158,7.4608998 0 0 1 -7.34017,-7.332"
           transform="matrix(0,-1,0.97555471,0.2197567,0,0)" />
        <path
           style="font-variation-settings:'wght' 400;fill:none;stroke:#000000;stroke-width:2.925;stroke-linecap:round;stroke-linejoin:round;stroke-dasharray:none;stroke-opacity:1"
           id="path42"
           d="m -208.02806,116.8003 a 7.2785158,7.4608998 0 0 1 -7.21578,7.46062 7.2785158,7.4608998 0 0 1 -7.34017,-7.332"
           transform="matrix(0,-1,0.97555471,0.2197567,0,0)" />
      </g>
    </g>
  </g>
</svg>
