<?xml version="1.0" encoding="UTF-8" standalone="no"?>
<!-- Created with Inkscape (http://www.inkscape.org/) -->

<svg
   width="40.080219"
   height="28.136759"
   viewBox="0 0 40.080219 28.136761"
   version="1.1"
   id="svg1"
   xmlns="http://www.w3.org/2000/svg"
   xmlns:svg="http://www.w3.org/2000/svg">
  <defs
     id="defs1" />
  <g
     id="layer1"
     transform="translate(-12.20769,-207.8625)">
    <g
       id="g24"
       transform="translate(0.6707773)">
      <path
         style="font-variation-settings:'wght' 400;fill:none;stroke:#000000;stroke-width:2.925;stroke-linecap:round;stroke-linejoin:round;stroke-dasharray:none;stroke-opacity:1"
         id="path21"
         d="m -61.819087,-221.99449 a 7.2785158,7.4608998 0 0 1 -7.215777,7.46062 7.2785158,7.4608998 0 0 1 -7.340173,-7.332"
         transform="matrix(-1,0,0.2197567,-0.97555471,0,0)" />
      <path
         style="font-variation-settings:'wght' 400;fill:none;stroke:#000000;stroke-width:2.925;stroke-linecap:round;stroke-linejoin:round;stroke-dasharray:none;stroke-opacity:1"
         id="path22"
         d="m -84.037715,-221.99449 a 7.2785158,7.4608998 0 0 1 -7.215777,7.46062 7.2785158,7.4608998 0 0 1 -7.340173,-7.332"
         transform="matrix(-1,0,0.2197567,-0.97555471,0,0)" />
      <path
         style="font-variation-settings:'wght' 400;fill:none;stroke:#000000;stroke-width:2.925;stroke-linecap:round;stroke-linejoin:round;stroke-dasharray:none;stroke-opacity:1"
         id="path23"
         d="m -66.002589,-240.45039 a 7.2785158,7.4608998 0 0 1 -7.215777,7.46062 7.2785158,7.4608998 0 0 1 -7.340173,-7.33201"
         transform="matrix(-1,0,0.2197567,-0.97555471,0,0)" />
      <path
         style="font-variation-settings:'wght' 400;fill:none;stroke:#000000;stroke-width:2.925;stroke-linecap:round;stroke-linejoin:round;stroke-dasharray:none;stroke-opacity:1"
         id="path24"
         d="m -88.221217,-240.45039 a 7.2785158,7.4608998 0 0 1 -7.215777,7.46062 7.2785158,7.4608998 0 0 1 -7.340176,-7.33201"
         transform="matrix(-1,0,0.2197567,-0.97555471,0,0)" />
    </g>
  </g>
</svg>
