<?xml version="1.0" encoding="UTF-8" standalone="no"?>
<!-- Created with Inkscape (http://www.inkscape.org/) -->

<svg
   width="128"
   height="512"
   viewBox="0 0 128 512.00004"
   version="1.1"
   id="svg1"
   inkscape:version="1.3.2 (091e20e, 2023-11-25, custom)"
   sodipodi:docname="elvhastian.svg"
   xmlns:inkscape="http://www.inkscape.org/namespaces/inkscape"
   xmlns:sodipodi="http://sodipodi.sourceforge.net/DTD/sodipodi-0.dtd"
   xmlns="http://www.w3.org/2000/svg"
   xmlns:svg="http://www.w3.org/2000/svg">
  <sodipodi:namedview
     id="namedview1"
     pagecolor="#505050"
     bordercolor="#eeeeee"
     borderopacity="1"
     inkscape:showpageshadow="0"
     inkscape:pageopacity="0"
     inkscape:pagecheckerboard="0"
     inkscape:deskcolor="#505050"
     inkscape:document-units="px"
     showgrid="true"
     inkscape:zoom="2"
     inkscape:cx="53.75"
     inkscape:cy="243.75"
     inkscape:window-width="1920"
     inkscape:window-height="991"
     inkscape:window-x="-9"
     inkscape:window-y="-9"
     inkscape:window-maximized="1"
     inkscape:current-layer="layer1">
    <inkscape:grid
       id="grid1"
       units="px"
       originx="0"
       originy="0"
       spacingx="64.000002"
       spacingy="64.000002"
       empcolor="#0099e5"
       empopacity="0.30196078"
       color="#fe8813"
       opacity="0.14901961"
       empspacing="5"
       dotted="false"
       gridanglex="30"
       gridanglez="30"
       visible="true" />
  </sodipodi:namedview>
  <defs
     id="defs1" />
  <g
     inkscape:label="Layer 1"
     inkscape:groupmode="layer"
     id="layer1">
    <path
       style="font-variation-settings:'wght' 400;fill:#000000;stroke-width:2.92499962;stroke:#000000;stroke-opacity:1;stroke-dasharray:none;stroke-linecap:round;stroke-linejoin:round"
       d="M 39.840296,6.8954359 37.031044,60.78199 Z"
       id="path1" />
    <path
       style="font-variation-settings:'wght' 400;fill:none;stroke:#000000;stroke-width:2.41348;stroke-linecap:round;stroke-linejoin:round;stroke-dasharray:none;stroke-opacity:1"
       d="m 21.997942,32.631973 c 0,0 0.291691,-11.039212 3.414475,-17.24148 3.122784,-6.2022678 11.460739,-8.4616214 9.07666,1.647851"
       id="path2"
       sodipodi:nodetypes="csc" />
    <path
       style="font-variation-settings:'wght' 400;fill:#000000;stroke:#000000;stroke-width:2.925;stroke-linecap:round;stroke-linejoin:round;stroke-dasharray:none;stroke-opacity:1"
       d="M 38.215026,69.739202 35.405774,123.62576 Z"
       id="path3" />
    <path
       style="font-variation-settings:'wght' 400;fill:none;stroke:#000000;stroke-width:2.97656;stroke-linecap:round;stroke-linejoin:round;stroke-dasharray:none;stroke-opacity:1"
       d="m 13.437597,163.27499 c 0,0 5.323059,-19.92475 13.644131,-21.95065 3.403022,-0.82851 6.252751,18.40588 -0.10759,10.91219"
       id="path6"
       sodipodi:nodetypes="csc" />
    <path
       style="font-variation-settings:'wght' 400;fill:none;stroke:#000000;stroke-width:2.97656;stroke-linecap:round;stroke-linejoin:round;stroke-dasharray:none;stroke-opacity:1"
       d="m 41.590728,140.44723 c 0,0 14.59381,14.57228 12.187759,22.79149 -0.984003,3.36136 -19.06634,-3.7879 -9.396441,-5.54927"
       id="path7"
       sodipodi:nodetypes="csc" />
    <path
       style="font-variation-settings:'wght' 400;fill:none;stroke:#000000;stroke-width:2.97656;stroke-linecap:round;stroke-linejoin:round;stroke-dasharray:none;stroke-opacity:1"
       d="m 49.192875,180.21179 c 0,0 -19.916869,5.35246 -25.831892,-0.84084 -2.419018,-2.53286 12.813589,-14.61798 9.504032,-5.36292"
       id="path8"
       sodipodi:nodetypes="csc" />
    <path
       style="font-variation-settings:'wght' 400;fill:none;stroke:#000000;stroke-width:1.59495;stroke-linecap:round;stroke-linejoin:round;stroke-dasharray:none;stroke-opacity:1"
       d="m 90.813991,270.99198 c 0,0 10.672249,-2.86806 13.841749,0.45056 1.2962,1.3572 -6.866029,7.83289 -5.092639,2.87366"
       id="path45"
       sodipodi:nodetypes="csc" />
    <path
       style="font-variation-settings:'wght' 400;fill:none;stroke:#000000;stroke-width:2.41348;stroke-linecap:round;stroke-linejoin:round;stroke-dasharray:none;stroke-opacity:1"
       d="m 20.210236,95.475741 c 0,0 0.291691,-11.039212 3.414475,-17.24148 3.122784,-6.202268 11.460739,-8.461621 9.07666,1.647851"
       id="path12"
       sodipodi:nodetypes="csc" />
    <path
       style="font-variation-settings:'wght' 400;fill:none;stroke:#000000;stroke-width:2.41348;stroke-linecap:round;stroke-linejoin:round;stroke-dasharray:none;stroke-opacity:1"
       d="m 19.814142,123.86101 c 0,0 0.291691,-11.03921 3.414475,-17.24148 3.122784,-6.20227 11.460739,-8.461621 9.07666,1.64785"
       id="path13"
       sodipodi:nodetypes="csc" />
    <g
       id="g19"
       transform="translate(0.53344096,64.108473)">
      <path
         style="font-variation-settings:'wght' 400;fill:#000000;stroke:#000000;stroke-width:2.925;stroke-linecap:round;stroke-linejoin:round;stroke-dasharray:none;stroke-opacity:1"
         d="M 52.292796,206.98753 12.202802,243.10465 Z"
         id="path9" />
      <path
         style="font-variation-settings:'wght' 400;fill:none;stroke:#000000;stroke-width:1.77277;stroke-linecap:round;stroke-linejoin:round;stroke-dasharray:none;stroke-opacity:1"
         d="m 29.623756,209.35643 c 0,0 5.885162,-5.58216 10.728507,-7.18161 4.843345,-1.59946 10.347478,1.55771 3.858455,5.5702"
         id="path10"
         sodipodi:nodetypes="csc" />
      <path
         style="font-variation-settings:'wght' 400;fill:none;stroke:#000000;stroke-width:1.77277;stroke-linecap:round;stroke-linejoin:round;stroke-dasharray:none;stroke-opacity:1"
         d="m 4.0709028,233.56787 c 0,0 5.885162,-5.58216 10.7285072,-7.18161 4.843345,-1.59946 10.347478,1.55771 3.858455,5.5702"
         id="path11"
         sodipodi:nodetypes="csc" />
      <path
         style="font-variation-settings:'wght' 400;fill:none;stroke:#000000;stroke-width:1.77277;stroke-linecap:round;stroke-linejoin:round;stroke-dasharray:none;stroke-opacity:1"
         d="m 58.817843,209.51403 c 0,0 -6.915144,4.23986 -9.713642,8.5042 -2.79851,4.26434 -1.173487,10.39807 4.381759,5.16866"
         id="path14"
         sodipodi:nodetypes="csc" />
      <path
         style="font-variation-settings:'wght' 400;fill:none;stroke:#000000;stroke-width:1.77277;stroke-linecap:round;stroke-linejoin:round;stroke-dasharray:none;stroke-opacity:1"
         d="m 34.464099,230.63656 c 0,0 -6.915144,4.23986 -9.713642,8.5042 -2.79851,4.26434 -1.173487,10.39807 4.381759,5.16866"
         id="path15"
         sodipodi:nodetypes="csc" />
    </g>
    <g
       id="g20"
       transform="translate(0.53344096,64.108473)">
      <path
         style="font-variation-settings:'wght' 400;fill:none;stroke:#000000;stroke-width:2.925;stroke-linecap:round;stroke-linejoin:round;stroke-dasharray:none;stroke-opacity:1"
         id="path16"
         sodipodi:type="arc"
         sodipodi:cx="-108.60682"
         sodipodi:cy="255.58302"
         sodipodi:rx="16.727818"
         sodipodi:ry="16.727818"
         sodipodi:start="0"
         sodipodi:end="1.9093519"
         sodipodi:open="true"
         sodipodi:arc-type="arc"
         d="m -91.879002,255.58302 a 16.727818,16.727818 0 0 1 -7.061259,13.65202 16.727818,16.727818 0 0 1 -15.222289,2.12625"
         transform="rotate(-30)" />
      <path
         style="font-variation-settings:'wght' 400;fill:none;stroke:#000000;stroke-width:2.925;stroke-linecap:round;stroke-linejoin:round;stroke-dasharray:none;stroke-opacity:1"
         d="m 41.755695,279.68397 c 0,0 -3.09131,-1.47741 -9.507896,-3.86463 -6.416586,-2.38722 -11.976115,0.0303 -11.433797,8.55355 0.510771,8.02742 6.448507,21.06938 9.640839,28.89506"
         id="path17"
         sodipodi:nodetypes="cssc" />
    </g>
    <g
       id="g21"
       transform="translate(0.53344096,64.108473)">
      <path
         style="font-variation-settings:'wght' 400;fill:none;stroke:#000000;stroke-width:2.925;stroke-linecap:round;stroke-linejoin:round;stroke-dasharray:none;stroke-opacity:1"
         id="path18"
         sodipodi:type="arc"
         sodipodi:cx="-329.5816"
         sodipodi:cy="-123.29555"
         sodipodi:rx="16.727818"
         sodipodi:ry="16.727818"
         sodipodi:start="0"
         sodipodi:end="1.9093519"
         sodipodi:open="true"
         sodipodi:arc-type="arc"
         d="m -312.85379,-123.29555 a 16.727818,16.727818 0 0 1 -7.06126,13.65202 16.727818,16.727818 0 0 1 -15.22228,2.12625"
         transform="matrix(0.25881905,-0.96592583,-0.96592583,-0.25881905,0,0)" />
      <path
         style="font-variation-settings:'wght' 400;fill:none;stroke:#000000;stroke-width:2.925;stroke-linecap:round;stroke-linejoin:round;stroke-dasharray:none;stroke-opacity:1"
         d="m 25.887002,344.39992 c 0,0 3.09131,-1.47741 9.5079,-3.86463 6.41658,-2.38722 16.551996,2.00481 -2.867845,15.1936 -6.654171,4.51911 -3.03049,15.45088 7.057278,19.19037"
         id="path19"
         sodipodi:nodetypes="cssc" />
    </g>
    <g
       id="g24"
       transform="translate(0.6707773)">
      <path
         style="font-variation-settings:'wght' 400;fill:none;stroke:#000000;stroke-width:2.925;stroke-linecap:round;stroke-linejoin:round;stroke-dasharray:none;stroke-opacity:1"
         id="path21"
         sodipodi:type="arc"
         sodipodi:cx="-69.097603"
         sodipodi:cy="-221.99449"
         sodipodi:rx="7.2785158"
         sodipodi:ry="7.4608998"
         sodipodi:start="0"
         sodipodi:end="3.124353"
         sodipodi:open="true"
         sodipodi:arc-type="arc"
         d="m -61.819087,-221.99449 a 7.2785158,7.4608998 0 0 1 -7.215777,7.46062 7.2785158,7.4608998 0 0 1 -7.340173,-7.332"
         transform="matrix(-1,0,0.2197567,-0.97555471,0,0)" />
      <path
         style="font-variation-settings:'wght' 400;fill:none;stroke:#000000;stroke-width:2.925;stroke-linecap:round;stroke-linejoin:round;stroke-dasharray:none;stroke-opacity:1"
         id="path22"
         sodipodi:type="arc"
         sodipodi:cx="-91.316231"
         sodipodi:cy="-221.99449"
         sodipodi:rx="7.2785158"
         sodipodi:ry="7.4608998"
         sodipodi:start="0"
         sodipodi:end="3.124353"
         sodipodi:open="true"
         sodipodi:arc-type="arc"
         d="m -84.037715,-221.99449 a 7.2785158,7.4608998 0 0 1 -7.215777,7.46062 7.2785158,7.4608998 0 0 1 -7.340173,-7.332"
         transform="matrix(-1,0,0.2197567,-0.97555471,0,0)" />
      <path
         style="font-variation-settings:'wght' 400;fill:none;stroke:#000000;stroke-width:2.925;stroke-linecap:round;stroke-linejoin:round;stroke-dasharray:none;stroke-opacity:1"
         id="path23"
         sodipodi:type="arc"
         sodipodi:cx="-73.281105"
         sodipodi:cy="-240.45039"
         sodipodi:rx="7.2785158"
         sodipodi:ry="7.4608998"
         sodipodi:start="0"
         sodipodi:end="3.124353"
         sodipodi:open="true"
         sodipodi:arc-type="arc"
         d="m -66.002589,-240.45039 a 7.2785158,7.4608998 0 0 1 -7.215777,7.46062 7.2785158,7.4608998 0 0 1 -7.340173,-7.33201"
         transform="matrix(-1,0,0.2197567,-0.97555471,0,0)" />
      <path
         style="font-variation-settings:'wght' 400;fill:none;stroke:#000000;stroke-width:2.925;stroke-linecap:round;stroke-linejoin:round;stroke-dasharray:none;stroke-opacity:1"
         id="path24"
         sodipodi:type="arc"
         sodipodi:cx="-95.499733"
         sodipodi:cy="-240.45039"
         sodipodi:rx="7.2785158"
         sodipodi:ry="7.4608998"
         sodipodi:start="0"
         sodipodi:end="3.124353"
         sodipodi:open="true"
         sodipodi:arc-type="arc"
         d="m -88.221217,-240.45039 a 7.2785158,7.4608998 0 0 1 -7.215777,7.46062 7.2785158,7.4608998 0 0 1 -7.340176,-7.33201"
         transform="matrix(-1,0,0.2197567,-0.97555471,0,0)" />
    </g>
    <path
       style="font-variation-settings:'wght' 400;fill:none;stroke:#000000;stroke-width:3.20403;stroke-linecap:round;stroke-linejoin:round;stroke-dasharray:none;stroke-opacity:1"
       d="m 15.494511,465.81047 c 0,0 0.387236,14.65518 4.53291,22.88904 4.145672,8.23386 15.214779,11.23328 12.049779,-2.18761"
       id="path25"
       sodipodi:nodetypes="csc" />
    <path
       style="font-variation-settings:'wght' 400;fill:none;stroke:#000000;stroke-width:3.20403;stroke-linecap:round;stroke-linejoin:round;stroke-dasharray:none;stroke-opacity:1"
       d="m 50.176891,495.7283 c 0,0 -0.387236,-14.65518 -4.53291,-22.88904 -4.145672,-8.23386 -15.214779,-11.23328 -12.049779,2.18761"
       id="path26"
       sodipodi:nodetypes="csc" />
    <path
       style="font-variation-settings:'wght' 400;fill:#000000;stroke:#000000;stroke-width:2.925;stroke-linecap:round;stroke-linejoin:round;stroke-dasharray:none;stroke-opacity:1"
       d="M 84.917535,5.3813372 82.108283,59.267891 Z"
       id="path27" />
    <path
       id="path28"
       style="font-variation-settings:'wght' 400;fill:none;stroke:#000000;stroke-width:2.925;stroke-linecap:square"
       d="m 114.32871,9.1973687 -2.663,16.7582783 c -0.6875,3.856902 -1.82423,6.579058 -4.78552,8.288758 -2.96129,1.709699 -6.60974,1.709698 -9.57103,-10e-7 -2.96129,-1.709699 -4.78552,-4.869356 -4.78552,-8.288757 l 1.6766,-17.7140841"
       sodipodi:nodetypes="ccsscc" />
    <path
       style="font-variation-settings:'wght' 400;fill:#000000;stroke:#000000;stroke-width:2.925;stroke-linecap:round;stroke-linejoin:round;stroke-dasharray:none;stroke-opacity:1"
       d="M 102.07136,68.395436 99.262106,122.28199 Z"
       id="path5" />
    <path
       style="font-variation-settings:'wght' 400;fill:none;stroke:#000000;stroke-width:2.41348;stroke-linecap:round;stroke-linejoin:round;stroke-dasharray:none;stroke-opacity:1"
       d="m 84.229004,94.131973 c 0,0 0.291691,-11.039212 3.414475,-17.24148 3.122784,-6.202268 11.460739,-8.461622 9.07666,1.647851"
       id="path20"
       sodipodi:nodetypes="csc" />
    <path
       style="font-variation-settings:'wght' 400;fill:#000000;stroke:#000000;stroke-width:1.05712;stroke-linecap:round;stroke-linejoin:round;stroke-dasharray:none;stroke-opacity:1"
       d="m 105.07606,104.22126 -1.01529,19.4752 z"
       id="path29" />
    <path
       style="font-variation-settings:'wght' 400;fill:#000000;stroke:#000000;stroke-width:2.925;stroke-linecap:round;stroke-linejoin:round;stroke-dasharray:none;stroke-opacity:1"
       d="M 99.205164,132.65515 96.39591,186.5417 Z"
       id="path30" />
    <path
       style="font-variation-settings:'wght' 400;fill:none;stroke:#000000;stroke-width:2.41348;stroke-linecap:round;stroke-linejoin:round;stroke-dasharray:none;stroke-opacity:1"
       d="m 81.362808,158.39168 c 0,0 0.291691,-11.03921 3.414475,-17.24148 3.122784,-6.20226 11.460739,-8.46162 9.07666,1.64786"
       id="path31"
       sodipodi:nodetypes="csc" />
    <path
       style="font-variation-settings:'wght' 400;fill:#000000;stroke:#000000;stroke-width:1.05712;stroke-linecap:round;stroke-linejoin:round;stroke-dasharray:none;stroke-opacity:1"
       d="m 102.20919,166.62149 -1.01529,19.4752 z"
       id="path32" />
    <path
       style="font-variation-settings:'wght' 400;fill:#000000;stroke:#000000;stroke-width:1.05712;stroke-linecap:round;stroke-linejoin:round;stroke-dasharray:none;stroke-opacity:1"
       d="m 106.68318,166.62149 -1.01529,19.4752 z"
       id="path33" />
    <path
       style="font-variation-settings:'wght' 400;fill:#000000;stroke:#000000;stroke-width:2.925;stroke-linecap:round;stroke-linejoin:round;stroke-dasharray:none;stroke-opacity:1"
       d="M 99.205164,197.40515 96.39591,251.2917 Z"
       id="path34" />
    <g
       id="g38">
      <path
         style="font-variation-settings:'wght' 400;fill:none;stroke:#000000;stroke-width:2.925;stroke-linecap:round;stroke-linejoin:round;stroke-dasharray:none;stroke-opacity:1"
         id="path35"
         sodipodi:type="arc"
         sodipodi:cx="191.59126"
         sodipodi:cy="-83.889595"
         sodipodi:rx="7.2785158"
         sodipodi:ry="7.4608998"
         sodipodi:start="0"
         sodipodi:end="3.124353"
         sodipodi:open="true"
         sodipodi:arc-type="arc"
         d="m 198.86978,-83.889595 a 7.2785158,7.4608998 0 0 1 -7.21578,7.460623 7.2785158,7.4608998 0 0 1 -7.34017,-7.332006"
         transform="matrix(0,1,-0.97555471,-0.2197567,0,0)" />
      <path
         style="font-variation-settings:'wght' 400;fill:none;stroke:#000000;stroke-width:2.925;stroke-linecap:round;stroke-linejoin:round;stroke-dasharray:none;stroke-opacity:1"
         id="path36"
         sodipodi:type="arc"
         sodipodi:cx="189.30888"
         sodipodi:cy="-94.275497"
         sodipodi:rx="7.2785158"
         sodipodi:ry="7.4608998"
         sodipodi:start="0"
         sodipodi:end="3.124353"
         sodipodi:open="true"
         sodipodi:arc-type="arc"
         d="m 196.5874,-94.275497 a 7.2785158,7.4608998 0 0 1 -7.21578,7.460622 7.2785158,7.4608998 0 0 1 -7.34017,-7.332005"
         transform="matrix(0,1,-0.97555471,-0.2197567,0,0)" />
    </g>
    <g
       id="g39">
      <path
         style="font-variation-settings:'wght' 400;fill:none;stroke:#000000;stroke-width:2.925;stroke-linecap:round;stroke-linejoin:round;stroke-dasharray:none;stroke-opacity:1"
         id="path37"
         sodipodi:type="arc"
         sodipodi:cx="-217.58896"
         sodipodi:cy="106.4144"
         sodipodi:rx="7.2785158"
         sodipodi:ry="7.4608998"
         sodipodi:start="0"
         sodipodi:end="3.124353"
         sodipodi:open="true"
         sodipodi:arc-type="arc"
         d="m -210.31044,106.4144 a 7.2785158,7.4608998 0 0 1 -7.21578,7.46062 7.2785158,7.4608998 0 0 1 -7.34017,-7.332"
         transform="matrix(0,-1,0.97555471,0.2197567,0,0)" />
      <path
         style="font-variation-settings:'wght' 400;fill:none;stroke:#000000;stroke-width:2.925;stroke-linecap:round;stroke-linejoin:round;stroke-dasharray:none;stroke-opacity:1"
         id="path38"
         sodipodi:type="arc"
         sodipodi:cx="-215.30658"
         sodipodi:cy="116.8003"
         sodipodi:rx="7.2785158"
         sodipodi:ry="7.4608998"
         sodipodi:start="0"
         sodipodi:end="3.124353"
         sodipodi:open="true"
         sodipodi:arc-type="arc"
         d="m -208.02806,116.8003 a 7.2785158,7.4608998 0 0 1 -7.21578,7.46062 7.2785158,7.4608998 0 0 1 -7.34017,-7.332"
         transform="matrix(0,-1,0.97555471,0.2197567,0,0)" />
    </g>
    <g
       id="g40"
       transform="translate(-0.625,31.75)">
      <path
         style="font-variation-settings:'wght' 400;fill:none;stroke:#000000;stroke-width:2.925;stroke-linecap:round;stroke-linejoin:round;stroke-dasharray:none;stroke-opacity:1"
         id="path39"
         sodipodi:type="arc"
         sodipodi:cx="191.59126"
         sodipodi:cy="-83.889595"
         sodipodi:rx="7.2785158"
         sodipodi:ry="7.4608998"
         sodipodi:start="0"
         sodipodi:end="3.124353"
         sodipodi:open="true"
         sodipodi:arc-type="arc"
         d="m 198.86978,-83.889595 a 7.2785158,7.4608998 0 0 1 -7.21578,7.460623 7.2785158,7.4608998 0 0 1 -7.34017,-7.332006"
         transform="matrix(0,1,-0.97555471,-0.2197567,0,0)" />
      <path
         style="font-variation-settings:'wght' 400;fill:none;stroke:#000000;stroke-width:2.925;stroke-linecap:round;stroke-linejoin:round;stroke-dasharray:none;stroke-opacity:1"
         id="path40"
         sodipodi:type="arc"
         sodipodi:cx="189.30888"
         sodipodi:cy="-94.275497"
         sodipodi:rx="7.2785158"
         sodipodi:ry="7.4608998"
         sodipodi:start="0"
         sodipodi:end="3.124353"
         sodipodi:open="true"
         sodipodi:arc-type="arc"
         d="m 196.5874,-94.275497 a 7.2785158,7.4608998 0 0 1 -7.21578,7.460622 7.2785158,7.4608998 0 0 1 -7.34017,-7.332005"
         transform="matrix(0,1,-0.97555471,-0.2197567,0,0)" />
    </g>
    <g
       id="g42"
       transform="translate(-0.125,-30.625)">
      <path
         style="font-variation-settings:'wght' 400;fill:none;stroke:#000000;stroke-width:2.925;stroke-linecap:round;stroke-linejoin:round;stroke-dasharray:none;stroke-opacity:1"
         id="path41"
         sodipodi:type="arc"
         sodipodi:cx="-217.58896"
         sodipodi:cy="106.4144"
         sodipodi:rx="7.2785158"
         sodipodi:ry="7.4608998"
         sodipodi:start="0"
         sodipodi:end="3.124353"
         sodipodi:open="true"
         sodipodi:arc-type="arc"
         d="m -210.31044,106.4144 a 7.2785158,7.4608998 0 0 1 -7.21578,7.46062 7.2785158,7.4608998 0 0 1 -7.34017,-7.332"
         transform="matrix(0,-1,0.97555471,0.2197567,0,0)" />
      <path
         style="font-variation-settings:'wght' 400;fill:none;stroke:#000000;stroke-width:2.925;stroke-linecap:round;stroke-linejoin:round;stroke-dasharray:none;stroke-opacity:1"
         id="path42"
         sodipodi:type="arc"
         sodipodi:cx="-215.30658"
         sodipodi:cy="116.8003"
         sodipodi:rx="7.2785158"
         sodipodi:ry="7.4608998"
         sodipodi:start="0"
         sodipodi:end="3.124353"
         sodipodi:open="true"
         sodipodi:arc-type="arc"
         d="m -208.02806,116.8003 a 7.2785158,7.4608998 0 0 1 -7.21578,7.46062 7.2785158,7.4608998 0 0 1 -7.34017,-7.332"
         transform="matrix(0,-1,0.97555471,0.2197567,0,0)" />
    </g>
    <path
       style="font-variation-settings:'wght' 400;fill:#000000;stroke:#000000;stroke-width:2.925;stroke-linecap:round;stroke-linejoin:round;stroke-dasharray:none;stroke-opacity:1"
       d="M 116.87809,270.07683 78.722986,308.2323 Z"
       id="path43" />
    <path
       style="font-variation-settings:'wght' 400;fill:#000000;stroke:#000000;stroke-width:2.925;stroke-linecap:round;stroke-linejoin:round;stroke-dasharray:none;stroke-opacity:1"
       d="M 78.722986,270.07683 116.87809,308.2323 Z"
       id="path44" />
    <path
       style="font-variation-settings:'wght' 400;fill:none;stroke:#000000;stroke-width:1.59495;stroke-linecap:round;stroke-linejoin:round;stroke-dasharray:none;stroke-opacity:1"
       d="m 104.78709,307.31715 c 0,0 -10.672255,2.86806 -13.841755,-0.45056 -1.2962,-1.3572 6.86603,-7.83289 5.09264,-2.87366"
       id="path46"
       sodipodi:nodetypes="csc" />
    <path
       style="font-variation-settings:'wght' 400;fill:none;stroke:#000000;stroke-width:1.59495;stroke-linecap:round;stroke-linejoin:round;stroke-dasharray:none;stroke-opacity:1"
       d="m 79.638128,296.14111 c 0,0 -2.86806,-10.67225 0.45056,-13.84175 1.3572,-1.2962 7.83289,6.86603 2.87366,5.09264"
       id="path47"
       sodipodi:nodetypes="csc" />
    <path
       style="font-variation-settings:'wght' 400;fill:none;stroke:#000000;stroke-width:1.59495;stroke-linecap:round;stroke-linejoin:round;stroke-dasharray:none;stroke-opacity:1"
       d="m 115.96295,282.16802 c 0,0 2.86806,10.67225 -0.45056,13.84175 -1.3572,1.2962 -7.83289,-6.86603 -2.87366,-5.09264"
       id="path48"
       sodipodi:nodetypes="csc" />
    <path
       style="font-variation-settings:'wght' 400;fill:none;stroke:#000000;stroke-width:1.59495;stroke-linecap:round;stroke-linejoin:round;stroke-dasharray:none;stroke-opacity:1"
       d="m 92.563993,332.86473 c 0,0 10.672247,-2.86806 13.841747,0.45056 1.2962,1.3572 -6.866027,7.83289 -5.09264,2.87366"
       id="path49"
       sodipodi:nodetypes="csc" />
    <path
       style="font-variation-settings:'wght' 400;fill:none;stroke:#000000;stroke-width:1.59495;stroke-linecap:round;stroke-linejoin:round;stroke-dasharray:none;stroke-opacity:1"
       d="m 106.53709,372.13543 c 0,0 -10.672253,2.86806 -13.841753,-0.45056 -1.2962,-1.3572 6.86603,-7.83289 5.09264,-2.87366"
       id="path52"
       sodipodi:nodetypes="csc" />
    <path
       style="font-variation-settings:'wght' 400;fill:none;stroke:#000000;stroke-width:1.59495;stroke-linecap:round;stroke-linejoin:round;stroke-dasharray:none;stroke-opacity:1"
       d="m 82.420819,359.48662 c 0,0 -2.86806,-10.67225 0.45056,-13.84175 1.3572,-1.2962 7.83289,6.86603 2.87366,5.09264"
       id="path53"
       sodipodi:nodetypes="csc" />
    <path
       style="font-variation-settings:'wght' 400;fill:none;stroke:#000000;stroke-width:1.59495;stroke-linecap:round;stroke-linejoin:round;stroke-dasharray:none;stroke-opacity:1"
       d="m 114.46295,345.51353 c 0,0 2.86806,10.67225 -0.45056,13.84175 -1.3572,1.2962 -7.83289,-6.86603 -2.87366,-5.09264"
       id="path54"
       sodipodi:nodetypes="csc" />
    <g
       id="g56"
       transform="translate(2,1.4024379e-5)">
      <path
         style="font-variation-settings:'wght' 400;fill:none;stroke:#000000;stroke-width:2.925;stroke-linecap:square;stroke-linejoin:miter"
         id="path55"
         sodipodi:type="arc"
         sodipodi:cx="-352.48962"
         sodipodi:cy="79.934029"
         sodipodi:rx="16.153833"
         sodipodi:ry="16.154005"
         sodipodi:start="0"
         sodipodi:end="3.1258174"
         sodipodi:open="true"
         sodipodi:arc-type="arc"
         d="m -336.33579,79.934029 a 16.153833,16.154005 0 0 1 -16.02642,16.153502 16.153833,16.154005 0 0 1 -16.27924,-15.898679"
         transform="rotate(-90)" />
      <path
         style="font-variation-settings:'wght' 400;fill:none;stroke:#000000;stroke-width:2.925;stroke-linecap:square;stroke-linejoin:miter"
         id="path56"
         sodipodi:type="arc"
         sodipodi:cx="-352.48962"
         sodipodi:cy="-115.16705"
         sodipodi:rx="16.153833"
         sodipodi:ry="16.154005"
         sodipodi:start="0"
         sodipodi:end="3.1258174"
         sodipodi:open="true"
         sodipodi:arc-type="arc"
         d="m -336.33579,-115.16705 a 16.153833,16.154005 0 0 1 -16.02642,16.153499 16.153833,16.154005 0 0 1 -16.27924,-15.898679"
         transform="matrix(0,-1,-1,0,0,0)" />
    </g>
    <path
       style="font-variation-settings:'wght' 400;fill:none;stroke:#000000;stroke-width:2.925;stroke-linecap:square;stroke-linejoin:miter"
       d="m 81.754701,407.6124 c 0,0 0.860733,-22.22783 13.117693,-15.7396 12.881826,6.81901 -3.700277,48.56116 3.620247,51.01777 11.964909,4.01517 14.428149,-22.44858 14.428149,-22.44858"
       id="path57"
       sodipodi:nodetypes="cssc" />
    <path
       style="font-variation-settings:'wght' 400;fill:none;stroke:#000000;stroke-width:2.925;stroke-linecap:round;stroke-linejoin:round"
       d="m 75.962852,397.96095 2.828427,18.34817 z"
       id="path58" />
    <path
       style="font-variation-settings:'wght' 400;fill:none;stroke:#000000;stroke-width:2.925;stroke-linecap:square;stroke-linejoin:miter"
       d="m 81.754701,469.48424 c 0,0 0.860733,-22.22783 13.117693,-15.7396 12.881826,6.81901 -3.700277,48.56116 3.620247,51.01777 11.964909,4.01517 14.428149,-22.44858 14.428149,-22.44858"
       id="path59"
       sodipodi:nodetypes="cssc" />
    <path
       style="font-variation-settings:'wght' 400;fill:none;stroke:#000000;stroke-width:1.425;stroke-linecap:round;stroke-linejoin:round;stroke-dasharray:none"
       id="path60"
       sodipodi:type="arc"
       sodipodi:cx="81.875"
       sodipodi:cy="468.9375"
       sodipodi:rx="5.75"
       sodipodi:ry="5.75"
       sodipodi:start="0"
       sodipodi:end="3.1361579"
       sodipodi:open="true"
       sodipodi:arc-type="arc"
       d="m 87.625,468.9375 a 5.75,5.75 0 0 1 -5.734375,5.74998 5.75,5.75 0 0 1 -5.76554,-5.71873" />
    <path
       style="font-variation-settings:'wght' 400;fill:none;stroke:#000000;stroke-width:1.425;stroke-linecap:round;stroke-linejoin:round;stroke-dasharray:none"
       id="path61"
       sodipodi:type="arc"
       sodipodi:cx="112.65634"
       sodipodi:cy="-483.64438"
       sodipodi:rx="5.75"
       sodipodi:ry="5.75"
       sodipodi:start="0"
       sodipodi:end="3.1361579"
       sodipodi:open="true"
       sodipodi:arc-type="arc"
       d="m 118.40634,-483.64438 a 5.75,5.75 0 0 1 -5.73437,5.74998 5.75,5.75 0 0 1 -5.76554,-5.71873"
       transform="scale(1,-1)" />
  </g>
</svg>
